
        <svg xmlns="http://www.w3.org/2000/svg" xmlns:xlink="http://www.w3.org/1999/xlink" version="1.1" width="3160.112359550562" height="691.8849857089136" viewBox="0 -58.360955056179776 3160.112359550562 691.8849857089136">
			
			<g transform="scale(8.00561797752809) translate(10, 10)">
				<defs id="SvgjsDefs1045"><linearGradient id="SvgjsLinearGradient1052"><stop id="SvgjsStop1053" stop-color="#2d388a" offset="0"/><stop id="SvgjsStop1054" stop-color="#00aeef" offset="1"/></linearGradient><linearGradient id="SvgjsLinearGradient1055"><stop id="SvgjsStop1056" stop-color="#2d388a" offset="0"/><stop id="SvgjsStop1057" stop-color="#00aeef" offset="1"/></linearGradient></defs><g id="SvgjsG1046" featureKey="nYIUkx-0" transform="matrix(0.6598744714937964,0,0,0.6598744714937964,-6.2806868760095975,-10.50855125401958)" fill="#fff"><g xmlns="http://www.w3.org/2000/svg"><path d="M63.163,5.283c1.626,0.171,3.202,0.587,4.796,0.926c1.42,0.301,2.788,0.76,4.155,1.215   c1.193,0.397,2.358,0.883,3.509,1.4c0.858,0.386,1.701,0.802,2.525,1.244c0.855,0.459,1.704,0.939,2.525,1.467   c0.79,0.509,1.585,1.01,2.345,1.56c1.167,0.844,2.287,1.751,3.364,2.709c0.077,0.069,0.211,0.106,0.19,0.253   c-0.477-0.14-0.867-0.448-1.245-0.74c-0.585-0.451-1.243-0.761-1.875-1.122c-0.934-0.534-1.897-1.026-2.906-1.388   c-1.054-0.378-2.091-0.806-3.19-1.068c-1.101-0.263-2.195-0.563-3.296-0.829c-0.244-0.082-0.488-0.163-0.732-0.245   c-0.104-0.086-0.218-0.146-0.359-0.135c-0.007-0.016-0.019-0.02-0.035-0.012c-0.395-0.157-0.785-0.328-1.209-0.397   c-0.011-0.016-0.025-0.021-0.043-0.013c-0.114-0.072-0.238-0.11-0.373-0.115c-0.043-0.005-0.087-0.01-0.13-0.015   c-0.186-0.045-0.373-0.09-0.559-0.135c-0.012-0.017-0.027-0.021-0.046-0.013c-0.402-0.236-0.871-0.244-1.306-0.368   c-0.775-0.222-1.561-0.426-2.378-0.44l-0.03-0.013c0,0-0.033,0.004-0.033,0.004c-0.052-0.021-0.103-0.053-0.157-0.061   c-0.984-0.159-1.965-0.339-2.953-0.467c-1.033-0.133-2.068-0.261-3.112-0.277c-2.304-0.151-4.608-0.123-6.912,0.013   c-0.021,0.001-0.041,0.018-0.062,0.027c-0.324-0.003-0.648-0.009-0.964,0.076c-0.045,0.002-0.091,0.005-0.136,0.007   c-0.334-0.033-0.662,0.037-0.989,0.075c-0.758,0.089-1.523,0.141-2.267,0.327l-0.03-0.004c0,0-0.027,0.014-0.027,0.014   c-0.264-0.003-0.52,0.041-0.769,0.129c-0.09,0.011-0.179,0.021-0.269,0.032C48.141,8.89,48.114,8.898,48.1,8.938   c0,0,0.005-0.002,0.005-0.002c-0.484,0.068-0.976,0.084-1.45,0.216L46.622,9.15c0,0-0.029,0.017-0.029,0.017   C46.402,9.186,46.21,9.2,46.034,9.29c-0.044,0.006-0.087,0.012-0.131,0.018c-0.322,0.08-0.662,0.096-0.961,0.263   c-0.819,0.2-1.655,0.347-2.453,0.611c-1.457,0.482-2.927,0.925-4.355,1.505c-0.966,0.392-1.925,0.806-2.869,1.24   c-0.904,0.415-1.792,0.875-2.668,1.356c-1.358,0.745-2.685,1.54-3.961,2.41c-1.106,0.753-2.19,1.541-3.233,2.387   c-0.485,0.394-0.963,0.809-1.454,1.199c-0.485,0.385-0.937,0.831-1.399,1.253c-0.845,0.772-1.644,1.591-2.434,2.413   c-0.406,0.422-0.807,0.869-1.188,1.325c-0.439,0.525-0.889,1.046-1.325,1.574c-0.627,0.759-1.195,1.566-1.775,2.363   c-0.763,1.047-1.476,2.13-2.137,3.238c-0.791,1.326-1.522,2.689-2.192,4.086c-0.446,0.931-0.794,1.905-1.272,2.816   c-0.299,0.57-0.339,1.226-0.709,1.805c0.304-1.248,0.631-2.443,1.019-3.628c0.459-1.398,0.998-2.762,1.568-4.113   c0.54-1.279,1.134-2.538,1.828-3.74c0.446-0.772,0.878-1.553,1.354-2.31c0.489-0.777,0.984-1.548,1.508-2.299   c1.135-1.627,2.368-3.179,3.713-4.638c0.696-0.755,1.423-1.482,2.152-2.207c0.913-0.91,1.883-1.752,2.866-2.575   c0.486-0.407,0.992-0.807,1.504-1.191c0.714-0.537,1.453-1.04,2.174-1.566c0.683-0.498,1.442-0.889,2.154-1.348   c0.83-0.534,1.699-1.009,2.581-1.436c0.779-0.378,1.525-0.832,2.36-1.113c0.625-0.21,1.203-0.566,1.825-0.804   c1.822-0.698,3.671-1.323,5.561-1.808c2.743-0.704,5.528-1.171,8.356-1.372c0.347-0.025,0.706,0.005,1.041-0.129   c2.071,0,4.143,0,6.214,0c0.477,0.119,0.963,0.129,1.451,0.134c0.022,0.01,0.044,0.012,0.067,0.005   C61.594,5.129,62.374,5.239,63.163,5.283z"/><path d="M45.212,30.841c-1.029,0.819-1.928,1.766-2.744,2.793c-0.945,1.19-1.708,2.488-2.288,3.895   c-0.788,1.913-1.05,3.903-1,5.962c0.04,1.673,0.383,3.274,0.843,4.872c0.373,1.296,0.849,2.549,1.406,3.769   c0.384,0.842,0.807,1.669,1.27,2.477c0.451,0.786,0.937,1.548,1.446,2.291c0.9,1.312,1.904,2.55,2.999,3.708   c1.128,1.192,2.321,2.312,3.601,3.345c0.562,0.453,1.13,0.899,1.714,1.318c0.901,0.646,1.828,1.261,2.781,1.828   c1.191,0.709,2.42,1.36,3.686,1.926c1.718,0.769,3.489,1.403,5.289,1.955c0.24,0.073,0.496,0.095,0.744,0.141   c2.978,0.857,6.027,1.112,9.11,1.062c1.473-0.024,2.943,0.003,4.384,0.352c0.41,0.099,0.815,0.244,1.201,0.415   c0.352,0.156,0.672,0.401,0.701,0.825c0.029,0.419-0.246,0.691-0.561,0.93c-0.794,0.603-1.708,0.903-2.663,1.144   c-2.322,0.586-4.677,0.709-7.054,0.584c-1.794-0.094-3.561-0.382-5.331-0.679c-1.32-0.222-2.59-0.61-3.886-0.913   c-1.325-0.31-2.571-0.847-3.874-1.213c-0.103-0.029-0.199-0.117-0.319-0.052c0.019-0.125-0.059-0.13-0.155-0.13   c0.039,0.073,0.088,0.114,0.159,0.127c0.015,0.214,0.225,0.241,0.341,0.358c0.494,0.498,1.066,0.906,1.633,1.306   c0.718,0.507,1.435,1.024,2.231,1.412c0.236,0.115,0.446,0.282,0.678,0.408c1.616,0.875,3.301,1.604,5.038,2.194   c1.979,0.673,4.013,1.147,6.075,1.509c3.213,0.564,6.449,0.582,9.696,0.512c2.783-0.06,5.514-0.496,8.247-0.958   c0.794-0.134,1.574-0.324,2.359-0.491c0.086-0.018,0.169-0.06,0.297,0.005c-0.357,0.154-0.676,0.343-1.021,0.43   c-0.838,0.212-1.61,0.618-2.445,0.82c-1.448,0.35-2.843,0.884-4.318,1.154c-1.16,0.212-2.296,0.578-3.466,0.749   c-2.455,0.358-4.906,0.756-7.39,0.892c-1.944,0.106-3.887,0.104-5.831,0.059c-2.442-0.056-4.853-0.401-7.263-0.782   c-1.388-0.22-2.737-0.591-4.106-0.883c-1.331-0.284-2.603-0.745-3.887-1.162c-1.382-0.448-2.726-1.014-4.057-1.609   c-0.89-0.398-1.762-0.831-2.63-1.268c-0.983-0.496-1.932-1.06-2.917-1.555c-1.028-0.516-1.959-1.173-2.878-1.863   c-0.559-0.42-1.108-0.854-1.619-1.322c-0.747-0.685-1.473-1.394-2.161-2.145c-0.495-0.539-0.979-1.09-1.446-1.65   c-0.681-0.816-1.332-1.662-1.932-2.539c-0.284-0.415-0.576-0.825-0.856-1.243c-0.335-0.714-0.867-1.31-1.21-2.02   c0,0,0-0.003,0-0.003c-0.033-0.177-0.171-0.283-0.28-0.41c0,0,0-0.003,0-0.003c-0.225-0.43-0.451-0.859-0.676-1.289   c0.151,0.637,0.203,1.295,0.511,1.879c0.383,1.103,0.762,2.205,1.215,3.286c0.368,0.879,0.844,1.702,1.198,2.584   c0.106,0.263,0.259,0.509,0.404,0.755c0.576,0.976,1.119,1.975,1.748,2.916c0.711,1.064,1.449,2.111,2.255,3.113   c0.377,0.468,0.774,0.93,1.141,1.41c0.341,0.446,0.744,0.863,1.142,1.273c0.517,0.534,0.99,1.114,1.537,1.613   c0.421,0.385,0.789,0.825,1.238,1.179c0.503,0.395,0.911,0.9,1.445,1.26c0.174,0.258,0.398,0.457,0.693,0.567   c0.689,0.72,1.512,1.277,2.299,1.876c0.591,0.45,1.18,0.907,1.798,1.319c0.762,0.508,1.528,1.011,2.292,1.515   c0.824,0.543,1.677,1.037,2.523,1.539c1.14,0.676,2.312,1.305,3.506,1.881c1.051,0.506,2.096,1.032,3.189,1.448   c0.148,0.056,0.269,0.155,0.397,0.25c0.292,0.217,0.688,0.187,1.018,0.338c0.206,0.094,0.429,0.148,0.706,0.24   c-0.173,0.103-0.284,0.049-0.396,0.027c-1.5-0.292-2.962-0.722-4.429-1.144c-1.323-0.381-2.621-0.829-3.91-1.299   c-1.16-0.424-2.313-0.875-3.446-1.378c-0.93-0.413-1.862-0.828-2.774-1.276c-0.924-0.454-1.874-0.867-2.74-1.437   c-0.151-0.1-0.304-0.212-0.499-0.218c-0.046-0.018-0.092-0.036-0.138-0.054c0,0,0.003,0.004,0.003,0.004   c-0.024-0.025-0.048-0.049-0.071-0.074c0,0,0.003,0.002,0.003,0.002c-0.559-0.408-1.176-0.724-1.761-1.089   c-1.013-0.631-2.005-1.297-3.005-1.949c0,0,0.002,0.002,0.002,0.002c-0.027-0.068-0.085-0.095-0.149-0.114   c-0.665-0.488-1.343-0.96-1.992-1.469c-0.62-0.486-1.21-1.011-1.815-1.516c-1.783-1.49-3.413-3.137-4.947-4.877   c-0.46-0.521-0.885-1.079-1.33-1.614c-0.823-0.987-1.548-2.044-2.258-3.106c-0.385-0.576-0.767-1.166-1.113-1.774   c-0.545-0.956-1.099-1.911-1.562-2.904c-0.459-0.984-0.918-1.971-1.323-2.984c-0.584-1.462-1.026-2.967-1.535-4.452   c-0.069-0.201-0.101-0.414-0.163-0.673c-0.499,0.703-0.67,1.456-0.739,2.24c-0.161,1.834,0.195,3.611,0.568,5.392   c0.342,1.632,0.854,3.212,1.378,4.787c0.431,1.293,0.964,2.552,1.429,3.834c0.222,0.614,0.383,1.249,0.505,1.893   c0.025,0.132,0.081,0.309-0.067,0.374c-0.159,0.07-0.265-0.084-0.36-0.201c-0.792-0.974-1.371-2.078-1.977-3.17   c-0.915-1.648-1.693-3.362-2.462-5.077c-0.664-1.482-1.201-3.021-1.794-4.535c0.009-0.041-0.009-0.063-0.049-0.07   c0,0-0.002-0.002-0.002-0.002c-0.092-0.705-0.375-1.349-0.633-2.001c-0.03-0.098-0.059-0.196-0.089-0.294   c-0.012-0.039-0.023-0.079-0.035-0.118c-0.035-0.317-0.175-0.602-0.266-0.902c-0.005-0.045-0.009-0.089-0.014-0.134   c-0.016-0.101-0.024-0.203-0.05-0.301c-0.433-1.624-0.829-3.255-0.863-4.949c0-0.393,0-0.787,0-1.18   c-0.035,0.238-0.146,0.463-0.109,0.704c-0.199,1.459-0.34,2.923-0.369,4.397c-0.067,0.117-0.047,0.246-0.048,0.37   c-0.016,1.145-0.053,2.29-0.033,3.434c0.019,1.041,0.068,2.083,0.23,3.115c0.042,0.933,0.269,1.841,0.385,2.764   c0.111,0.884,0.428,1.711,0.685,2.557c0.285,0.937,0.772,1.79,1.06,2.722c0.109,0.353,0.162,0.716,0.119,1.088   c-0.031,0.272-0.187,0.325-0.413,0.221c-0.286-0.131-0.523-0.328-0.729-0.565c-0.848-0.974-1.489-2.082-2.073-3.226   c-0.768-1.503-1.377-3.071-1.921-4.666c-0.041-0.121-0.078-0.24-0.16-0.34c-0.012-0.338-0.172-0.637-0.253-0.957   c-0.265-1.043-0.561-2.078-0.844-3.115c-0.003-0.024-0.006-0.047-0.009-0.071c-0.032-0.476-0.087-0.947-0.258-1.397   c-0.142-0.873-0.281-1.746-0.428-2.618c-0.182-1.079-0.272-2.166-0.327-3.258c-0.115-2.254-0.101-4.509,0.069-6.758   c0.122-1.617,0.49-3.198,0.817-4.786c0.25-1.211,0.701-2.35,1.067-3.519c0.186-0.596,0.539-1.138,0.78-1.719   c0.475-1.147,1.066-2.231,1.657-3.32c0.388-0.715,0.84-1.387,1.256-2.081c0.469-0.783,1.035-1.509,1.565-2.255   c0.391-0.552,0.821-1.073,1.244-1.595c0.422-0.521,0.864-1.034,1.314-1.536c0.74-0.825,1.499-1.634,2.295-2.398   c0.449-0.431,0.914-0.86,1.389-1.271c0.579-0.502,1.163-1.002,1.758-1.482c0.809-0.653,1.631-1.298,2.5-1.866   c0.641-0.419,1.28-0.845,1.933-1.248c0.869-0.536,1.753-1.05,2.657-1.513c0.986-0.505,1.986-0.991,3.006-1.434   c1.106-0.481,2.224-0.939,3.356-1.334c1.121-0.392,2.221-0.853,3.377-1.164c0.677-0.182,1.371-0.393,2.017-0.711   c0.217-0.106,0.488-0.101,0.734-0.147c0.627-0.09,1.22-0.309,1.822-0.494c0.016,0.009,0.028,0.005,0.037-0.01   c0.172-0.015,0.335-0.059,0.489-0.139c0.043-0.006,0.086-0.012,0.13-0.018c0.331-0.066,0.661-0.137,0.979-0.258   c0.043-0.005,0.086-0.01,0.129-0.016c0.121,0.011,0.239,0.006,0.348-0.055c0.045-0.004,0.09-0.009,0.135-0.013   c0.501-0.037,0.974-0.215,1.468-0.291c0.043-0.007,0.076-0.076,0.114-0.116c0.141,0.002,0.283,0.051,0.421-0.013   c0.097,0.013,0.189,0.001,0.273-0.055c0,0,0.002,0,0.002,0c0.511-0.067,1.02-0.144,1.52-0.275c0.023-0.002,0.045-0.004,0.068-0.007   c0.393-0.043,0.785-0.087,1.178-0.13c0.023,0.011,0.044,0.009,0.065-0.005c0.362,0.008,0.717-0.036,1.069-0.121   c0.015,0.012,0.028,0.011,0.038-0.006c0.429-0.001,0.853-0.049,1.274-0.132l0.02,0.013c0,0,0.021-0.011,0.021-0.011   c0.746-0.046,1.492-0.093,2.239-0.139c0.656-0.005,1.312-0.01,1.969-0.015c0.806,0.045,1.611,0.09,2.417,0.135   c0.023,0.001,0.045,0.003,0.068,0.004c0.344,0.129,0.733,0.045,1.076,0.207c-0.043,0.132-0.173,0.131-0.233,0.211   c-1.092-0.058-2.15,0.196-3.209,0.385c-1.809,0.323-3.621,0.625-5.398,1.115c-1.183,0.326-2.369,0.642-3.55,0.978   c-1.305,0.372-2.571,0.853-3.839,1.319c-1.105,0.406-2.191,0.873-3.267,1.363c-0.994,0.453-1.964,0.949-2.924,1.461   c-0.835,0.445-1.654,0.927-2.459,1.435c-0.737,0.465-1.458,0.953-2.17,1.451c-0.955,0.668-1.856,1.409-2.736,2.177   c-0.812,0.71-1.584,1.459-2.321,2.24c-0.403,0.427-0.79,0.88-1.184,1.32c-0.418,0.467-0.832,0.944-1.226,1.425   c-0.433,0.529-0.874,1.059-1.297,1.599c-0.529,0.676-1.051,1.362-1.553,2.055c-0.542,0.749-1.062,1.52-1.547,2.312   c-0.467,0.763-0.924,1.535-1.316,2.333c-0.653,1.327-1.232,2.694-1.42,4.184c-0.069,0.548-0.113,1.104,0.11,1.634   c0.087,0.206,0.157,0.449,0.427,0.49c0.277,0.043,0.433-0.159,0.539-0.357c0.39-0.726,0.857-1.41,1.158-2.184   c0.078-0.201,0.194-0.389,0.304-0.576c0.499-0.849,0.914-1.743,1.399-2.601c0.422-0.745,0.844-1.493,1.287-2.225   c0.598-0.987,1.244-1.949,1.928-2.879c1.258-1.71,2.635-3.323,4.224-4.737c0.827-0.736,1.692-1.423,2.62-2.044   c0.91-0.609,1.856-1.143,2.829-1.622c0.778-0.384,1.527-0.836,2.357-1.116c0.346-0.117,0.669-0.301,1.003-0.454   c1.034-0.472,2.106-0.859,3.182-1.21c2.131-0.696,4.308-1.218,6.564-1.313c0.126-0.005,0.252-0.001,0.423-0.001   c-0.115,0.171-0.279,0.206-0.414,0.242c-0.674,0.179-1.249,0.581-1.896,0.814c-0.823,0.297-1.563,0.762-2.357,1.119   c-0.823,0.369-1.598,0.846-2.386,1.291c-0.858,0.484-1.73,0.951-2.553,1.49c-0.689,0.451-1.391,0.883-2.055,1.374   c-0.626,0.463-1.263,0.912-1.875,1.393c-0.639,0.502-1.254,1.031-1.864,1.568c-0.447,0.393-0.862,0.82-1.283,1.233   c-0.509,0.499-0.976,1.049-1.423,1.617c-0.506,0.643-0.948,1.323-1.41,1.992c-0.32,0.463-0.541,0.98-0.838,1.456   c-0.469,0.749-0.832,1.561-1.168,2.37c-0.928,2.235-1.623,4.539-1.715,6.983c-0.023,0.622,0.018,1.243,0.197,1.845   c0.079,0.265,0.181,0.596,0.47,0.624c0.279,0.027,0.426-0.296,0.528-0.527c0.325-0.733,0.64-1.473,0.915-2.227   c0.454-1.24,0.98-2.45,1.527-3.649c0.442-0.968,0.928-1.919,1.453-2.85c1.18-2.09,2.564-4.017,4.363-5.617   c0.769-0.684,1.573-1.337,2.415-1.928c1.303-0.917,2.649-1.771,4.095-2.458c1.239-0.588,2.512-1.075,3.85-1.371   c0.693-0.153,1.408-0.156,2.126-0.126c-0.757,0.321-1.476,0.705-2.206,1.065c-0.923,0.455-1.811,0.974-2.665,1.56   C46.689,29.69,45.916,30.217,45.212,30.841z"/></g></g><g id="SvgjsG1047" featureKey="PXhRQw-0" transform="matrix(1.6530316919475818,0,0,1.6530316919475818,79.3542852835599,-2.2651584597379095)" fill="#fff"><path d="M10.009766 5.888672 l0 2.578125 l-3.349609 0 l0 11.533203 l-2.900391 0 l0 -11.533203 l-3.369141 0 l0 -2.578125 l9.619141 0 z M17.929688 9.765625 c2.246094 0 3.59375 1.25 3.59375 3.759766 l0 6.474609 l-2.822266 0 l0 -6.015625 c0 -1.474609 -0.820312 -1.962891 -1.826172 -1.962891 c-1.044922 0 -2.1875 0.517578 -2.207031 2.441406 l0 5.537109 l-2.8125 0 l0 -15 l2.8125 0 l0 6.162109 c0.712891 -0.869141 1.835938 -1.396484 3.261719 -1.396484 z M33.671876 14.833984 l-0.029297 0.673828 l-7.441406 0 c0.117188 1.669922 1.230469 2.470703 2.568359 2.470703 c1.005859 0 1.787109 -0.46875 2.167969 -1.357422 l2.578125 0.380859 c-0.664062 2.03125 -2.470703 3.193359 -4.726562 3.193359 c-3.242187 0 -5.361328 -1.914062 -5.361328 -5.214844 s2.177734 -5.234375 5.273438 -5.234375 c2.841797 0 4.960938 1.572266 4.970703 5.087891 z M28.720704 11.738281 c-1.279297 0 -2.167969 0.595703 -2.441406 1.933594 l4.609375 0 c-0.146484 -1.279297 -1.015625 -1.933594 -2.167969 -1.933594 z M50.820312 20 l-1.025391 -2.910156 l-5.927734 0 l-1.025391 2.910156 l-2.998047 0 l5.195313 -14.111328 l3.583984 0 l5.195313 14.111328 l-2.998047 0 z M44.726562 14.638672 l4.208984 0 l-2.099609 -5.986328 z M55.9375 20 l0 -14.111328 l2.929688 0 l0 14.111328 l-2.929687 0 z M75.566406 17.275391 c0 1.230469 0.117188 2.011719 0.244141 2.451172 l0 0.273438 l-2.626953 0 l-0.224609 -1.09375 c-0.751953 0.908203 -2.050781 1.289063 -3.222656 1.289063 c-1.582031 0 -3.125 -0.703125 -3.125 -2.792969 c0 -2.080078 1.552734 -2.783203 3.652344 -3.242187 l1.650391 -0.371094 c0.712891 -0.166016 0.966797 -0.410156 0.966797 -0.820312 c0 -0.986328 -0.898437 -1.259766 -1.689453 -1.259766 c-1.015625 0 -1.787109 0.400391 -1.962891 1.533203 l-2.490234 -0.449219 c0.419922 -2.080078 1.943359 -3.027344 4.609375 -3.027344 c2.011719 0 4.21875 0.595703 4.21875 3.623047 l0 3.886719 z M70.615234 18.291016 c1.337891 0 2.412109 -0.888672 2.412109 -2.880859 l-2.382812 0.673828 c-0.78125 0.185547 -1.347656 0.458984 -1.347656 1.132813 c0 0.722656 0.595703 1.074219 1.318359 1.074219 z M84.228516 9.765625 c2.412109 0 3.740234 1.25 3.740234 3.476563 l0 6.757813 l-2.822266 0 l0 -6.152344 c0 -1.337891 -0.830078 -1.826172 -1.796875 -1.826172 c-1.162109 0 -2.216797 0.585938 -2.236328 2.441406 l0 5.537109 l-2.8125 0 l0 -10.039062 l2.8125 0 l0 1.113281 c0.703125 -0.830078 1.787109 -1.308594 3.115234 -1.308594 z M97.8125 5 l2.8125 0 l0 15 l-2.666016 0 l-0.068359 -1.308594 c-0.576172 0.986328 -1.787109 1.542969 -3.154297 1.542969 c-2.646484 0 -4.833984 -1.953125 -4.833984 -5.234375 s2.197266 -5.234375 4.833984 -5.234375 c1.318359 0 2.480469 0.498047 3.076172 1.40625 l0 -6.171875 z M95.380859 17.900391 c1.494141 0 2.65625 -1.142578 2.65625 -2.900391 s-1.171875 -2.910156 -2.65625 -2.910156 c-1.494141 0 -2.666016 1.103516 -2.666016 2.910156 c0 1.796875 1.171875 2.900391 2.666016 2.900391 z M114.628907 9.765625 c2.636719 0 4.824219 1.953125 4.824219 5.234375 s-2.1875 5.234375 -4.824219 5.234375 c-1.386719 0 -2.597656 -0.556641 -3.164062 -1.542969 l-0.068359 1.308594 l-2.666016 0 l0 -15 l2.8125 0 l0 6.181641 c0.585938 -0.908203 1.757813 -1.416016 3.085938 -1.416016 z M113.97461 17.900391 c1.494141 0 2.666016 -1.103516 2.666016 -2.900391 c0 -1.806641 -1.171875 -2.910156 -2.666016 -2.910156 c-1.484375 0 -2.65625 1.152344 -2.65625 2.910156 s1.162109 2.900391 2.65625 2.900391 z M131.015626 14.833984 l-0.029297 0.673828 l-7.441406 0 c0.117188 1.669922 1.230469 2.470703 2.568359 2.470703 c1.005859 0 1.787109 -0.46875 2.167969 -1.357422 l2.578125 0.380859 c-0.664062 2.03125 -2.470703 3.193359 -4.726562 3.193359 c-3.242187 0 -5.361328 -1.914062 -5.361328 -5.214844 s2.177734 -5.234375 5.273438 -5.234375 c2.841797 0 4.960938 1.572266 4.970703 5.087891 z M126.064454 11.738281 c-1.279297 0 -2.167969 0.595703 -2.441406 1.933594 l4.609375 0 c-0.146484 -1.279297 -1.015625 -1.933594 -2.167969 -1.933594 z M139.726563 9.960938 l2.880859 0 l-6.191406 14.765625 l-2.851562 0 l2.294922 -5.136719 l-4.130859 -9.628906 l3.066406 0 l2.392578 6.601563 z M148.769532 20.195313 c-3.193359 0 -5.498047 -1.943359 -5.498047 -5.224609 c0 -3.261719 2.285156 -5.205078 5.498047 -5.205078 c3.232422 0 5.507813 1.943359 5.507813 5.205078 c0 3.28125 -2.285156 5.224609 -5.507812 5.224609 z M148.740235 17.958984 c1.630859 0 2.744141 -1.191406 2.744141 -2.988281 s-1.113281 -2.988281 -2.744141 -2.988281 c-1.572266 0 -2.675781 1.191406 -2.675781 2.988281 s1.103516 2.988281 2.675781 2.988281 z M162.294922 9.765625 c2.412109 0 3.740234 1.25 3.740234 3.476563 l0 6.757813 l-2.822266 0 l0 -6.152344 c0 -1.337891 -0.830078 -1.826172 -1.796875 -1.826172 c-1.162109 0 -2.216797 0.585938 -2.236328 2.441406 l0 5.537109 l-2.8125 0 l0 -10.039062 l2.8125 0 l0 1.113281 c0.703125 -0.830078 1.787109 -1.308594 3.115234 -1.308594 z M175.878907 5 l2.8125 0 l0 15 l-2.666016 0 l-0.068359 -1.308594 c-0.576172 0.986328 -1.787109 1.542969 -3.154297 1.542969 c-2.646484 0 -4.833984 -1.953125 -4.833984 -5.234375 s2.197266 -5.234375 4.833984 -5.234375 c1.318359 0 2.480469 0.498047 3.076172 1.40625 l0 -6.171875 z M173.447266 17.900391 c1.494141 0 2.65625 -1.142578 2.65625 -2.900391 s-1.171875 -2.910156 -2.65625 -2.910156 c-1.494141 0 -2.666016 1.103516 -2.666016 2.910156 c0 1.796875 1.171875 2.900391 2.666016 2.900391 z"/></g><g id="SvgjsG1048" featureKey="mlRtrp-0" transform="matrix(0.3532292209341165,0,0,0.3532292209341165,109.25835998485914,46.79576973663036)" fill="#fff"><path d="M17.402344 16.298828 c0 0.52083 -0.068369 0.973329 -0.205088 1.357441 s-0.327148 0.714512 -0.571289 0.991201 s-0.537109 0.501299 -0.878906 0.673828 s-0.719404 0.309248 -1.132812 0.410156 s-0.854492 0.170898 -1.323242 0.209961 s-0.953779 0.058594 -1.455078 0.058594 l-9.736328 0 l0 -13.417969 l9.560547 0 c0.384111 0 0.769854 0.016279 1.157227 0.048828 s0.756836 0.092773 1.108398 0.180664 s0.678711 0.209961 0.981445 0.366211 s0.566406 0.361328 0.791016 0.615234 s0.400391 0.559893 0.527344 0.917969 s0.19043 0.78125 0.19043 1.269531 c0 0.872393 -0.214844 1.564121 -0.644531 2.075186 s-1.106768 0.85123 -2.03125 1.020498 c0.651045 0.045576 1.209316 0.144863 1.674814 0.297861 s0.844727 0.361328 1.137695 0.625 s0.507813 0.585938 0.644531 0.966797 s0.205078 0.825195 0.205078 1.333008 z M12.880859 10.55667 c0 -0.169268 -0.026045 -0.3304 -0.078125 -0.483398 s-0.146484 -0.288086 -0.283203 -0.405273 s-0.322266 -0.211592 -0.556641 -0.283203 s-0.533857 -0.107422 -0.898437 -0.107422 l-5.341797 0 l0 2.519531 l5.341797 0 c0.36458 0 0.664063 -0.032549 0.898438 -0.097656 s0.419922 -0.152998 0.556641 -0.263672 s0.231123 -0.24251 0.283203 -0.395508 s0.078125 -0.314131 0.078125 -0.483398 z M13.720703 15.878936 c0 -0.305986 -0.05208 -0.551768 -0.15625 -0.737314 s-0.266934 -0.328779 -0.488291 -0.429687 s-0.507812 -0.167637 -0.859375 -0.200186 s-0.771484 -0.048828 -1.259766 -0.048828 l-5.234375 0 l0 2.841797 l5.234375 0 c0.488281 0 0.908203 -0.016279 1.259766 -0.048828 s0.638018 -0.100908 0.859375 -0.205078 s0.384121 -0.249023 0.488291 -0.43457 s0.15625 -0.431318 0.15625 -0.737305 z M44.039062 14.521484 l0 5.478516 l-3.613281 0 l0 -5.478516 l-6.503906 -7.939453 l4.0625 0 l4.257813 5.400391 l4.238281 -5.400391 l4.0625 0 z M90.398437 20 l0 -13.417969 l3.623047 0 l0 10.478516 l9.794922 0 l0 2.939453 l-13.417969 0 z M121.634765 20 l0 -13.417969 l13.583984 0 l0 2.861328 l-9.863281 0 l0 2.216797 l9.355469 0 l0 2.861328 l-9.355469 0 l0 2.617188 l10 0 l0 2.861328 l-13.720703 0 z M171.132813 13.300781 c0 1.152344 -0.211592 2.1696 -0.634766 3.051758 s-1.028643 1.619463 -1.816406 2.211914 s-1.743164 1.040039 -2.866211 1.342773 s-2.384443 0.454102 -3.78418 0.454102 s-2.664385 -0.151367 -3.793945 -0.454102 s-2.091475 -0.750322 -2.885742 -1.342773 s-1.40625 -1.329756 -1.835937 -2.211914 s-0.644531 -1.899414 -0.644531 -3.051758 s0.214844 -2.1696 0.644531 -3.051758 s1.04167 -1.619463 1.835938 -2.211914 s1.756182 -1.040039 2.885742 -1.342773 s2.394209 -0.454102 3.793945 -0.454102 s2.661133 0.151367 3.78418 0.454102 s2.078447 0.750322 2.866211 1.342773 s1.393232 1.329756 1.816406 2.211914 s0.634766 1.899414 0.634766 3.051758 z M167.470703 13.300781 c0 -0.501299 -0.079756 -1.000996 -0.239258 -1.499043 s-0.442705 -0.945635 -0.849609 -1.342773 s-0.961914 -0.719404 -1.665039 -0.966797 s-1.598311 -0.371094 -2.685547 -0.371094 c-0.72917 0 -1.370449 0.056963 -1.923838 0.170898 s-1.031904 0.271816 -1.435547 0.473643 s-0.742187 0.437832 -1.015625 0.708018 s-0.491533 0.559902 -0.654297 0.86915 s-0.27832 0.631514 -0.34668 0.966797 s-0.102539 0.665684 -0.102539 0.991201 c0 0.332031 0.03418 0.667314 0.102539 1.005859 s0.183916 0.662441 0.34668 0.971689 s0.380859 0.597334 0.654297 0.864258 s0.611982 0.499668 1.015625 0.698232 s0.882158 0.354814 1.435547 0.46875 s1.194668 0.170898 1.923838 0.170898 c1.087236 0 1.982422 -0.123701 2.685547 -0.371094 s1.258135 -0.569658 1.665039 -0.966797 s0.690107 -0.844727 0.849609 -1.342773 s0.239258 -0.997725 0.239258 -1.499023 z M202.027344 20 l-9.052734 -9.21875 l0 9.21875 l-3.623047 0 l0 -13.417969 l3.935547 0 l9.0625 9.257813 l0 -9.257812 l3.603516 0 l0 13.417969 l-3.925781 0 z M235.851562 17.460938 l-7.480469 0 l-1.259766 2.539063 l-4.042969 0 l7.021484 -13.417969 l4.042969 0 l7.021484 13.417969 l-4.042969 0 z M229.669922 14.84375 l4.902344 0 l-2.441406 -4.941406 z M261.892578 20 l-3.623047 0 l0 -13.417969 l9.082031 0 c0.976563 0 1.80501 0.100908 2.485352 0.302734 s1.23373 0.488281 1.660166 0.859375 s0.735684 0.818682 0.927744 1.342773 s0.288086 1.108398 0.288086 1.75293 c0 0.566406 -0.079756 1.061201 -0.239258 1.484375 s-0.374346 0.786133 -0.644531 1.088867 s-0.584316 0.558271 -0.942393 0.766602 s-0.735684 0.380859 -1.132822 0.517578 l4.394531 5.302734 l-4.238281 0 l-4.0625 -4.941406 l-3.955078 0 l0 4.941406 z M269.050781 10.820313 c0 -0.26042 -0.03418 -0.481739 -0.102539 -0.664034 s-0.187178 -0.33041 -0.356445 -0.444346 s-0.395508 -0.196943 -0.678711 -0.249023 s-0.636396 -0.078125 -1.05957 -0.078125 l-4.960937 0 l0 2.871094 l4.960938 0 c0.423174 0 0.776367 -0.026045 1.05957 -0.078125 s0.509443 -0.135088 0.678711 -0.249023 s0.288086 -0.262051 0.356445 -0.444346 s0.102539 -0.403652 0.102539 -0.664072 z M308.099609 13.28125 c0 0.859375 -0.094385 1.622734 -0.283184 2.290049 s-0.454102 1.248369 -0.795898 1.743164 s-0.751953 0.914717 -1.230469 1.259766 s-1.010742 0.621738 -1.59668 0.830068 s-1.217451 0.359697 -1.894531 0.454102 s-1.383457 0.141602 -2.119131 0.141602 l-8.515625 0 l0 -13.417969 l8.496094 0 c0.735674 0 1.442051 0.047197 2.119131 0.141602 s1.310215 0.245771 1.899404 0.454102 s1.124668 0.483398 1.606436 0.825195 s0.893555 0.761719 1.235352 1.259766 s0.6071 1.079102 0.795898 1.743164 s0.283203 1.422529 0.283203 2.275391 z M304.447266 13.28126 c0 -0.644531 -0.083008 -1.204404 -0.249023 -1.679668 s-0.432939 -0.86752 -0.800781 -1.176768 s-0.847988 -0.540371 -1.440439 -0.693369 s-1.315107 -0.229492 -2.167969 -0.229492 l-4.501953 0 l0 7.578125 l4.501953 0 c0.852861 0 1.575518 -0.076494 2.167969 -0.229492 s1.072598 -0.387373 1.440439 -0.703125 s0.634766 -0.71126 0.800781 -1.186523 s0.249023 -1.035156 0.249023 -1.679687 z M343.681641 13.300781 c0 1.152344 -0.211592 2.1696 -0.634766 3.051758 s-1.028643 1.619463 -1.816406 2.211914 s-1.743164 1.040039 -2.866211 1.342773 s-2.384443 0.454102 -3.78418 0.454102 s-2.664385 -0.151367 -3.793945 -0.454102 s-2.091475 -0.750322 -2.885742 -1.342773 s-1.40625 -1.329756 -1.835937 -2.211914 s-0.644531 -1.899414 -0.644531 -3.051758 s0.214844 -2.1696 0.644531 -3.051758 s1.04167 -1.619463 1.835938 -2.211914 s1.756182 -1.040039 2.885742 -1.342773 s2.394209 -0.454102 3.793945 -0.454102 s2.661133 0.151367 3.78418 0.454102 s2.078447 0.750322 2.866211 1.342773 s1.393232 1.329756 1.816406 2.211914 s0.634766 1.899414 0.634766 3.051758 z M340.019531 13.300781 c0 -0.501299 -0.079756 -1.000996 -0.239258 -1.499043 s-0.442705 -0.945635 -0.849609 -1.342773 s-0.961914 -0.719404 -1.665039 -0.966797 s-1.598311 -0.371094 -2.685547 -0.371094 c-0.72917 0 -1.370449 0.056963 -1.923838 0.170898 s-1.031904 0.271816 -1.435547 0.473643 s-0.742187 0.437832 -1.015625 0.708018 s-0.491533 0.559902 -0.654297 0.86915 s-0.27832 0.631514 -0.34668 0.966797 s-0.102539 0.665684 -0.102539 0.991201 c0 0.332031 0.03418 0.667314 0.102539 1.005859 s0.183916 0.662441 0.34668 0.971689 s0.380859 0.597334 0.654297 0.864258 s0.611982 0.499668 1.015625 0.698232 s0.882158 0.354814 1.435547 0.46875 s1.194668 0.170898 1.923838 0.170898 c1.087236 0 1.982422 -0.123701 2.685547 -0.371094 s1.258135 -0.569658 1.665039 -0.966797 s0.690107 -0.844727 0.849609 -1.342773 s0.239258 -0.997725 0.239258 -1.499023 z M396.701172 10.361328 c-0.253906 -0.123701 -0.589161 -0.26372 -1.00583 -0.41997 s-0.888672 -0.304365 -1.416016 -0.444336 s-1.100264 -0.257158 -1.71875 -0.351562 s-1.253252 -0.141602 -1.904297 -0.141602 c-0.52083 0 -0.965166 0.016279 -1.333008 0.048828 s-0.67709 0.074863 -0.927744 0.126943 s-0.449219 0.112305 -0.595703 0.180664 s-0.258789 0.13835 -0.336914 0.209961 s-0.128584 0.143223 -0.151367 0.214834 s-0.03418 0.136719 -0.03418 0.195313 c0 0.195313 0.097656 0.366211 0.292969 0.512695 s0.462236 0.276689 0.800781 0.390625 s0.732422 0.221357 1.181641 0.322266 s0.926104 0.205078 1.430664 0.3125 s1.025391 0.224609 1.5625 0.351563 s1.057939 0.275068 1.5625 0.444336 s0.981445 0.366211 1.430664 0.59082 s0.843096 0.48665 1.181641 0.786133 s0.605469 0.644531 0.800781 1.035156 s0.292969 0.836592 0.292969 1.337891 c0 0.644531 -0.113936 1.19792 -0.341797 1.660156 s-0.532227 0.852861 -0.913086 1.171875 s-0.821943 0.574551 -1.323242 0.766611 s-1.027012 0.340176 -1.577139 0.444346 s-1.106768 0.172529 -1.669922 0.205078 s-1.098633 0.048828 -1.606445 0.048828 c-1.328125 0 -2.556963 -0.109053 -3.686523 -0.327148 s-2.127285 -0.489902 -2.993174 -0.81542 l0 -3.203125 c0.891924 0.494795 1.90918 0.882168 3.051758 1.162119 s2.364912 0.419922 3.666992 0.419922 c0.768232 0 1.394863 -0.040693 1.879893 -0.12207 s0.864258 -0.185547 1.137695 -0.3125 s0.458984 -0.265303 0.556641 -0.415039 s0.146484 -0.292969 0.146484 -0.429687 c0 -0.214844 -0.097656 -0.402021 -0.292969 -0.561523 s-0.462236 -0.299473 -0.800781 -0.419912 s-0.732422 -0.231113 -1.181641 -0.332021 s-0.926104 -0.201816 -1.430664 -0.302725 s-1.02377 -0.209961 -1.557627 -0.327148 s-1.053066 -0.255537 -1.557627 -0.415039 s-0.981445 -0.345049 -1.430664 -0.556641 s-0.843096 -0.462246 -1.181641 -0.751963 s-0.605469 -0.625 -0.800781 -1.005859 s-0.292969 -0.821943 -0.292969 -1.323242 c0 -0.592451 0.10417 -1.103516 0.3125 -1.533203 s0.489902 -0.795898 0.844717 -1.098633 s0.764971 -0.548506 1.230469 -0.737305 s0.95541 -0.335283 1.469736 -0.439453 s1.035156 -0.175781 1.5625 -0.214844 s1.028643 -0.058594 1.503906 -0.058594 c0.52083 0 1.056309 0.026045 1.606436 0.078125 s1.092119 0.125322 1.625977 0.219727 s1.049805 0.203457 1.547852 0.327158 s0.958662 0.253906 1.381836 0.390625 l0 3.105469 z M426.941406 17.460938 l-7.480469 0 l-1.259766 2.539063 l-4.042969 0 l7.021484 -13.417969 l4.042969 0 l7.021484 13.417969 l-4.042969 0 z M420.759766 14.84375 l4.902344 0 l-2.441406 -4.941406 z M452.982422 20 l-3.623047 0 l0 -13.417969 l9.082031 0 c0.976563 0 1.80501 0.100908 2.485352 0.302734 s1.23373 0.488281 1.660166 0.859375 s0.735684 0.818682 0.927744 1.342773 s0.288086 1.108398 0.288086 1.75293 c0 0.566406 -0.079756 1.061201 -0.239258 1.484375 s-0.374346 0.786133 -0.644531 1.088867 s-0.584316 0.558271 -0.942393 0.766602 s-0.735684 0.380859 -1.132822 0.517578 l4.394531 5.302734 l-4.238281 0 l-4.0625 -4.941406 l-3.955078 0 l0 4.941406 z M460.140625 10.820313 c0 -0.26042 -0.03418 -0.481739 -0.102539 -0.664034 s-0.187178 -0.33041 -0.356445 -0.444346 s-0.395508 -0.196943 -0.678711 -0.249023 s-0.636396 -0.078125 -1.05957 -0.078125 l-4.960937 0 l0 2.871094 l4.960938 0 c0.423174 0 0.776367 -0.026045 1.05957 -0.078125 s0.509443 -0.135088 0.678711 -0.249023 s0.288086 -0.262051 0.356445 -0.444346 s0.102539 -0.403652 0.102539 -0.664072 z M490.273438 9.501953 l0 10.498047 l-3.623047 0 l0 -10.498047 l-5.693359 0 l0 -2.919922 l15.019531 0 l0 2.919922 l-5.703125 0 z M513.287109 20 l0 -13.417969 l3.623047 0 l0 13.417969 l-3.623047 0 z M575.52539 20 l0 -9.423828 l-4.980469 9.423828 l-3.476562 0 l-4.980469 -9.423828 l0 9.423828 l-3.623047 0 l0 -13.417969 l4.921875 0 l5.419922 10.15625 l5.419922 -10.15625 l4.902344 0 l0 13.417969 l-3.603516 0 z M609.027343 17.460938 l-7.480469 0 l-1.259766 2.539063 l-4.042969 0 l7.021484 -13.417969 l4.042969 0 l7.021484 13.417969 l-4.042969 0 z M602.845703 14.84375 l4.902344 0 l-2.441406 -4.941406 z M640.087891 6.240234 c1.315107 0 2.537461 0.112285 3.667021 0.336895 s2.166348 0.512695 3.110361 0.864258 l0 3.28125 c-0.371094 -0.20833 -0.789385 -0.410156 -1.254883 -0.605469 s-0.97168 -0.367842 -1.518555 -0.517578 s-1.132812 -0.270176 -1.757812 -0.361318 s-1.282549 -0.136719 -1.972656 -0.136719 c-0.859375 0 -1.608076 0.061846 -2.246094 0.185547 s-1.184893 0.289717 -1.640625 0.498047 s-0.830078 0.45084 -1.123047 0.727529 s-0.524092 0.571289 -0.693359 0.883789 s-0.286455 0.631514 -0.351562 0.957031 s-0.097656 0.64127 -0.097656 0.947256 c0 0.266924 0.027666 0.556641 0.083008 0.869141 s0.159512 0.625 0.31251 0.9375 s0.366211 0.611982 0.639648 0.898438 s0.629883 0.540361 1.069336 0.761719 s0.968428 0.39877 1.586914 0.532236 s1.35416 0.200195 2.207021 0.200195 c0.429688 0 0.804033 -0.013018 1.123047 -0.039062 s0.610352 -0.061855 0.874023 -0.107432 s0.511064 -0.100918 0.742188 -0.166025 s0.470381 -0.133467 0.717773 -0.205078 l0 -1.621094 l-4.0625 0 l0 -2.939453 l7.685547 0 l0 6.855469 c-0.481768 0.162764 -1.020508 0.310879 -1.616211 0.444346 s-1.210937 0.247402 -1.845703 0.341807 s-1.271162 0.167646 -1.90918 0.219727 s-1.240234 0.078125 -1.806641 0.078125 c-0.878906 0 -1.722002 -0.058594 -2.529297 -0.175781 s-1.560879 -0.297852 -2.260752 -0.541992 s-1.337891 -0.55501 -1.914062 -0.932617 s-1.067705 -0.826826 -1.474609 -1.347656 s-0.722656 -1.118164 -0.947266 -1.791992 s-0.336914 -1.430664 -0.336914 -2.270508 c0 -0.83333 0.117188 -1.588535 0.351563 -2.265615 s0.561523 -1.276035 0.981445 -1.796865 s0.924482 -0.970049 1.513672 -1.347656 s1.236973 -0.688477 1.94335 -0.932617 s1.461582 -0.424805 2.265615 -0.541992 s1.63248 -0.175781 2.485342 -0.175781 z M666.001953 20 l0 -13.417969 l3.623047 0 l0 13.417969 l-3.623047 0 z"/></g>
			</g>
		</svg>
	